<svg t="1744252335129" class="icon" viewBox="0 0 1024 1024" version="1.1" xmlns="http://www.w3.org/2000/svg" p-id="923" width="16" height="16"><path d="M606.5152 330.5472l49.92 101.1712a55.296 55.296 0 0 0 41.6768 30.2592l111.616 16.2304a55.3984 55.3984 0 0 1 30.72 94.464l-80.7936 78.7456a55.4496 55.4496 0 0 0-15.9232 49.0496l19.1488 111.1552a55.3472 55.3472 0 0 1-80.3328 58.368l-99.84-52.48a55.296 55.296 0 0 0-51.5584 0l-99.84 52.48a55.3472 55.3472 0 0 1-80.3328-58.368l19.0464-111.1552a55.4496 55.4496 0 0 0-15.9232-49.0496l-80.896-78.7456a55.3984 55.3984 0 0 1 30.72-94.464l111.616-16.2304a55.4496 55.4496 0 0 0 41.728-30.2592l49.92-101.1712a55.3984 55.3984 0 0 1 99.328 0z" fill="#FCA659" p-id="924"></path><path d="M300.1856 928A97.7408 97.7408 0 0 1 204.0832 814.08l26.5728-154.7264a56.7808 56.7808 0 0 0-16.2816-50.0736l-112.64-109.568a97.5872 97.5872 0 0 1 54.0672-166.4l155.3408-22.5792a56.32 56.32 0 0 0 42.6496-30.72L423.4752 138.752a97.536 97.536 0 0 1 174.9504 0l69.4784 140.8a56.32 56.32 0 0 0 42.5984 30.72l155.3408 22.5792a97.5872 97.5872 0 0 1 54.0672 166.4L807.5264 609.28a56.32 56.32 0 0 0-16.2816 50.1248l26.5216 154.6752a97.536 97.536 0 0 1-141.568 102.4l-138.9056-73.0112a56.32 56.32 0 0 0-52.6848 0L345.6512 916.48a97.28 97.28 0 0 1-45.4656 11.52zM510.9248 125.3376a55.5008 55.5008 0 0 0-50.7392 31.5392l-69.4784 140.8A97.28 97.28 0 0 1 317.44 351.0272L161.8944 373.76a56.6272 56.6272 0 0 0-31.3344 96.4096l112.64 109.568a97.28 97.28 0 0 1 28.0576 86.3232l-26.5216 154.7264a56.576 56.576 0 0 0 81.92 59.648l138.9056-73.0112a97.28 97.28 0 0 1 90.7776 0L695.296 880.64a56.576 56.576 0 0 0 81.92-59.648l-26.5728-154.7264a97.28 97.28 0 0 1 28.0576-86.3232l112.64-109.568A56.576 56.576 0 0 0 860.16 373.76l-155.3408-22.5792a97.5872 97.5872 0 0 1-73.472-53.3504l-69.4272-140.8a55.552 55.552 0 0 0-50.9952-31.6928z" fill="#55524F" p-id="925"></path><path d="M510.9248 701.0816a163.3792 163.3792 0 0 1-115.8656-47.9232 20.48 20.48 0 0 1 28.9792-28.9792 122.88 122.88 0 0 0 173.7728 0 20.48 20.48 0 0 1 28.9792 28.9792 163.328 163.328 0 0 1-115.8656 47.9232z" fill="#55524F" p-id="926"></path></svg>